<?xml version="1.0" encoding="UTF-8"?> <svg xmlns="http://www.w3.org/2000/svg" width="56" height="31" viewBox="0 0 56 31" fill="none"> <path fill-rule="evenodd" clip-rule="evenodd" d="M4.4375 9.93279L4.43757 15.3881L5.67464 15.3936C6.80335 15.3987 6.97005 15.4171 7.5765 15.6034C9.63081 16.2342 11.2297 17.609 12.0884 19.4829C12.4374 20.2448 12.6172 20.9701 12.7443 22.1293C12.998 24.4438 13.7546 25.6827 14.8147 26.1496C15.2299 26.3325 15.5765 26.522 16.2549 26.522C16.8422 26.522 17.8938 26.4678 18.7661 24.9953C19.6925 23.4315 20.3513 21.5964 20.8112 19.2483C21.3881 16.3032 20.9841 13.1009 20.6421 11.5632C20.0421 8.8661 18.9135 6.62844 17.615 5.56196C17.0906 5.1312 16.3511 4.74825 15.8266 4.63587C15.262 4.51493 14.0018 4.53116 13.4883 4.66603C12.4344 4.94286 11.0398 5.8201 10.6416 7.30757C10.3717 8.3161 10.6812 9.58433 10.9194 10.0754C11.5604 11.3967 12.3351 12.0652 14.9993 13.5963C17.4779 15.0206 18.0939 15.639 18.332 16.9417C18.4917 17.8158 18.1961 18.6226 17.5575 19.0549C17.0915 19.3703 16.6954 19.4718 16.1072 19.4265C15.1556 19.3532 14.5226 18.9231 13.8586 17.8984C13.6009 17.5007 12.0278 14.7792 10.3628 11.8505C8.69768 8.9218 7.07382 6.06571 6.75423 5.50372L6.17318 4.48178L5.30534 4.4797L4.4375 4.47754V9.93279ZM24.2317 6.41388V8.35021H26.3366H28.4416V6.41388V4.47754H26.3366H24.2317V6.41388ZM31.913 15.5742V26.522H34.018H36.1229V15.5742V4.62649H34.018H31.913V15.5742ZM39.5943 15.5742V26.522H41.6993H43.8043V15.5742V4.62649H41.6993H39.5943V15.5742ZM24.2317 18.4415V26.522H26.3366H28.4416V18.4415V10.361H26.3366H24.2317V18.4415ZM47.0541 24.325V26.522H49.3068H51.5595V24.325V22.128H49.3068H47.0541V24.325Z" fill="white"></path> </svg> 